<svg width="32" height="33" viewBox="0 0 32 33" fill="none" xmlns="http://www.w3.org/2000/svg">
<g clip-path="url(#clip0_722_71090)">
<path d="M16 32.5576C24.8366 32.5576 32 25.3942 32 16.5576C32 7.72106 24.8366 0.557617 16 0.557617C7.16344 0.557617 0 7.72106 0 16.5576C0 25.3942 7.16344 32.5576 16 32.5576Z" fill="#00A0FF"/>
<path d="M15.3572 21.68C16 21.7206 16.6445 21.632 17.2525 21.4194C17.4407 21.3304 17.5964 21.1849 17.6981 21.0032C17.7998 20.8216 17.8424 20.6127 17.8199 20.4057C17.8027 20.1867 17.7274 19.9763 17.6017 19.7961C17.476 19.6159 17.3045 19.4725 17.1049 19.3807C16.4053 18.9851 15.6724 18.6516 14.9146 18.384C14.1485 18.1008 13.4563 17.8177 12.8378 17.5062C12.2488 17.2259 11.7086 16.8531 11.2376 16.4019C10.8015 15.9696 10.4579 15.4533 10.2275 14.8841C9.97338 14.2057 9.85202 13.4847 9.87007 12.7605C9.84204 12.0273 9.99023 11.298 10.3022 10.6339C10.6142 9.96973 11.0809 9.39009 11.6632 8.94355C12.8661 8.00726 14.5117 7.541 16.5999 7.54476C17.609 7.54048 18.6161 7.63341 19.6074 7.82226C20.3795 7.95806 21.1388 8.15887 21.8772 8.42255L21.0317 12.2055C20.4242 12.001 19.8068 11.8271 19.1818 11.6845C18.4474 11.5254 17.6974 11.4494 16.946 11.458C15.4329 11.458 14.6763 11.8827 14.6763 12.7322C14.6733 12.9111 14.7081 13.0886 14.7784 13.2532C14.865 13.4342 15.0006 13.5872 15.1699 13.6949C15.4242 13.8669 15.6918 14.0184 15.9701 14.148C16.3049 14.3122 16.7362 14.4934 17.2582 14.7143C18.1678 15.027 19.0535 15.4055 19.9082 15.8469C20.5245 16.1644 21.0828 16.5837 21.5594 17.0871C21.9512 17.5114 22.2421 18.0185 22.4106 18.5709C22.5811 19.1866 22.6633 19.8235 22.6546 20.4623C22.6984 21.2181 22.5446 21.9723 22.2083 22.6505C21.872 23.3288 21.3648 23.9077 20.7366 24.3303C19.4618 25.2024 17.6592 25.6384 15.3289 25.6384C14.0466 25.6649 12.7659 25.5336 11.5156 25.2477C10.7998 25.0789 10.0964 24.8613 9.4104 24.5964L10.2275 20.6322C11.0541 20.9589 11.9063 21.2165 12.7754 21.4024C13.6238 21.5855 14.4892 21.6786 15.3572 21.68Z" fill="white"/>
</g>
<defs>
<clipPath id="clip0_722_71090">
<rect width="32" height="32" fill="white" transform="translate(0 0.557617)"/>
</clipPath>
</defs>
</svg>
